<?xml version='1.0' encoding='utf-8'?>
<svg xmlns="http://www.w3.org/2000/svg" width="210mm" height="297mm" clip-rule="evenodd" fill-rule="evenodd" image-rendering="optimizeQuality" shape-rendering="geometricPrecision" text-rendering="geometricPrecision" viewBox="0 0 21000 29700">
 <defs>
  <style type="text/css">
   
    .fil0 {fill:#fff}
   
  </style>
 </defs>
  <path class="fil0" d="m5987 14190c49 34 115 11 169 3 62-10 128 5 203-9 83-15 80-22 176-26 143-6 114-72 62-67-44 4-91 20-148 10-64-11-83-52-154-15-32 17-102 43-134 48-49 8-153 1-175 56zm-747 3281c-11-62 40-120 95-83 80 83 4 162-95 83zm-561-55c62-62 166-44 143 64-77 77-169 57-143-64zm983-322c-22 82-129 50-109-32 20-38 117-46 109 32zm-1301 108c-26-66 1-69 13-127 6-31 11-122 70-84 28 18 7 95 7 137 0 62-28 85-90 74zm386-208c50-10 52-46 92-52 18 54 25 82-30 111-251 135-174-150-62-59zm3340-50l84-5c52-43 11-88 83-98 61-9 100-7 166-21 40-8 109-35 145-30 48 7 104 55 54 101-10 10-230 102-255 110-71 22-247 22-277-57zm-3255-36c-173-18-134-188-102-205 34-18 108 11 109 52 1 32-17 21-15 67 1 39 15 37 8 86zm5475-94c-78 50-373-104-423-175-45-63-15-64 26-90 35-22 24-53 81-72 79-27 345-31 443-24 41 3 111-14 133-6 38 13 51 76 27 108-33 43-347-9-405-17-52-7-84-25-133 4-73 43-55 14-122 30-11 99 347 156 373 242zm-5186 50l80 27c15 62-16 71 2 127 12 36 44 55 64 85-31 47-148 83-203 63-26-104 73-47 72-123-25-21-104-5-124 9-25 35-7 54-12 98-124 21-116-71-92-160 4-16 83-148 102-186 65-133 113-253 188-389 50-91 94-97 171-35 88 72 67 99 20 193-17 34-32 63-46 98-14 34-20 87-34 109-56 86-188-44-186 84zm-544-305c-29-64 48-126 91-88 26 69-18 130-91 88zm6492 6c-61 26-88 4-127-44-24-30-66-88-33-124 58-61 208 53 160 168zm-2517-65c19-40 80-31 123-35 53-5 79-27 121-31 68-7 72 13 139-22 27-14 92-42 95 13s-40 78-76 72c-70-12-65 3-122 8-62 6-92-13-160 13-40 16-81 8-120-18zm-4191-104c-10-75 66-126 126-101 21 52-69 144-126 101zm5771-91c-44 59-159 80-225 105-72 27-170 61-244 86-70 24-314 121-380 101-143-42-148-119-28-130 70-6 32 47 123 14 80-29 167-46 251-71 514-156 342-154 438-218 31 22 67 74 66 113zm-4691 7c-49 4-87-29-91-76-5-61 47-48 87-72 128-76 49 115 3 148zm6934 63c52 65 75 131-13 178s-123 61-215 24c-135-55-270-47-272-153-1-78 26-31-10-115-20-46-50-191-5-224 37-27 98 62 227 24 150-45 219 179 288 266zm403-140c40 34 105 116 159 89 15-66-167-134-150-219 25-11 176 13 204 27 8 63-73 62 35 142 93 69 71-40 160-6 1 71-91 101-147 116-214 54-524 310-533 66-5-126-104-408 113-326 87 33 98 58 161 111zm-3619 204c-27-47 110-192 147-249 32-51 53-78 117-85 47-5 146-19 185-5 0 58-39 35-91 55-37 14-63 30-90 60 12 140 30 97-137 154-42 14-123 69-132 70zm2386-106c19 126-15 229-22 345-11 165 36 200-160 212-63 4-273 7-249-95 51-41 102-6 163-7 15 0 163-7 163-7 22-40-4-37-4-87 0-29 15-54 22-82 62-239 32-183 6-325-13-69 5-99-9-169-10-50-9-125 62-112s73 40 109 86c32 40 82 75 64 133-16 52-95 39-124 3-1-56 35-34 27-87-42-45-100 2-93 51 5 36 39 94 46 141zm-4173-171c14 212 17 81-15 194-15 54-25 121-79 154l-113-47c-13-90 41-28 24-152-12-91 46-77 48-132-49-40-60-4-92-86-17-45-34-109-6-150 22 4 47 70 130 93 88 25 95 22 102 126zm4850-168c-30-87 131-126 162-85 67 88-106 113-162 85zm-929-133c128-25 162 119 59 131-98 11-190-105-59-131zm1765 177c-49-29-76-33-123-72-222-185-184-105-244-146 77-98 340 92 420 138 97 56 102 73 222 80 49 3 188 41 217 82 17 24 63 211 61 243-1 28-11 258-73 202-29-26 3-129-86-220-90-92-163-59-200-97-10-62 66-54 42-117-51-13-77 24-142 6-46-47-15-53-94-100zm708 538c19-65 17-145 25-214 8-70-11-138-41-201-31-64-79-69-136-103-56-33-85-90-73-156 22-112 81-66 133-98-4-40-61-52-22-112 25-39 92-34 131-21 85 29 103 124 130 199 64 173 86 395 45 576-56 250-174 458-332 658-41 51-166 139-173 156 116 16 151-37 226-111 50-50 126-114 168-171 61-83 79-140 119-220 63-129 65-211 122-216 62 101-187 508-282 598-64 61-171 158-247 202-51 29-279 111-290 148 25 8 180-56 226-67 61-16 135-64 188-100 166-113 181-112 289-287 45-73 76-81 113-174 28-71 54-137 78-210 22-66 43-167 50-237 8-77 7-196 23-264 3 20 28 72 34 107 7 39 5 99 5 141-1 503-403 1030-889 1152-118 30-129 36-255 38-84 1-204 9-284-1-105-13-332-102-419-165-54-39-279-238-296-289-29-89 79-32-32-196-29-43-81-169-71-217 44-59 136-39 199-20 105 32 34 104 88 149 32 26 150 47 193 51 103 11 90 12 173 65 195 122 583 164 771 25 81-60 192-157 231-251 26-63 65-102 83-163zm-5798-790c-2-46 118-115 161-140 52-31 62-3 120-15 43-9 80-31 125-4-14 83-389 163-405 159zm-3288-88c32 63-22 185-36 259-16 88-149 79-223 114-104 48-280 225-348 320-74 104-130 411-129 540 3 665 888 1176 1538 607 159-139 171-317 262-406 57-11 69 23 132-22 42-29 59-63 63-112 7-88-15-68-52-123-22-33-30-97-41-138-17-63-8-99-20-157-26-129 33-68 48-126 15-55-45-74-86-89-63-23-49-55-76-102-89-9-34 36-121 33-76-63-41-89-5-163 22-45 59-126 101-151 100 4 214 204 256 286 132 258 141 638 50 917-68 210-76 181-181 356 163 142 336-706 332-713 68 157-106 581-204 744-63 104-242 316-347 390-31 22-131 84-140 109 45 34 269-150 314-191 98-89 162-188 239-292 76-104 111-251 156-370 30-80 71-420 89-441 120 169-69 659-168 829-122 209-320 414-526 541-487 300-1169 291-1595-117-84-80-176-199-233-300-86-150-93-235-143-390-41-126-23-349-16-486 8-153 62-277 117-416 275-696 1164-976 1220-855 66-26-188 34-352 114-674 353 95 36 125 1zm8162-155c-14 39-70 72-103 99-73 59-62 32-143 20-79-11-70-23-117-79-34-41-61-35-7-83 82 21 225-186 228-203 60-8 41 69 71 121 13 23 18 46 35 66 24 29 30 17 35 58zm-3774 202c28 42 145 110 192 77 34-81-82-18-134-101 3-77 71-91 129-54 79 51 50 94 102 127 59 7 53-41 127 0 31 17 82 32 89 65 13 59-41 47-75 74-45 36-24 43-94 58-133 29-101 8-208-61-53-34-128-88-179-125-210-153-248-88-309-149-51-52-165-134-168-138-34-37-15-80 35-83 63-4 117 78 195 109 23-41 3-132 135-69 156 74 85 8 149-7 43 36-8 60 0 121 5 43 6 127 13 156zm-1741 89c164-93 150 212 359 14 110-104 261-334 436-394 66-23 132-54 199-72 142-37 289-74 429-112 47-13 185-92 182 1-2 72-132 75-186 87-152 34-282 74-431 119-166 51-224 85-348 203-25 24-259 272-263 280 3 20 69 124 85 140 51 52 89 48 155 22 462-178 358 56 719-94 90-37 235-127 330-100 35 27 46 74 19 111-47 38-79-28-152 0-58 23-39 68-74 110-69 4-88-45-175 21-57 43-15 113-61 160-113 49-472-89-558-61-47 15-47-4-79-24-46-28-42 3-90-3-47-6-62-79-121-108-88-43-62 2-142-86-141-156-252-102-233-217zm2190-200c-52-38-92-85-139-123-79-65-399-304-372-388 56-22 386 118 461 147 87 34 395 110 443 176-128 9-566-175-609-157-15 55 303 306 358 357 63 56 137 107 200 164 42 37 152 156 202 156 0-34-72-238 59-215 37 6 83 43 84 83 2 68-57 41-45 108 33 6 114-54 128-88 18-46-7-144 70-136 48 74-37 321-37 321-63 20-111-46-197 6-22 38-8 76-59 88-28-14-28-52-49-80-18-24-49-34-74-53-156-118-288-265-424-364zm4946-409s-138-174 7-134c125 35 93 46 211-12 96-48 199-27 76 51-170 107-123 22-175 29-49 27-41 88-118 67zm-144 27c35 112-169 96-214 53-155-147-14-138-131-129-75 121 55 103 38 174-20 35-210 69-253 47-16-68 40-134 72-194 76-142 211-41 139-197 73-19 218-79 276-12 19 22 51 189 73 258zm-2438 617c-30-40-59-81-90-122-39-51-160-210-160-265 86 2 139 166 202 169 17-22 52-463 58-533 4-41-35-290 56-164 48 67 43 161 30 240-15 88-18 173-36 261-45 221 45 177 57 99 21-134 27-101 124-172 61-45 121-103 198-80 91 72-59 217-116 264-42 35-75 67-118 102-36 30-101 63-125 93 8 57 57 73 69 143 9 48-32 108-78 112-18-39 7-54-14-96-13-26-37-26-57-53zm243-1003c23-55 127-24 175-32 32-5 101-55 134-72 71-37 77 31 141 42 57 10 117-32 161-36 75 105-369 124-423 125-54 9-139 8-187-26zm2238-3c-55 12-69-14-96-58-51-81 15-58 49-58 41-1 22-15 61-22 32-5 33 7 59-1 33-10 78-55 94 16-31 42-33 85-80 84-23 36-53 13-86 39zm800-176c70-28 171 37 69 63-97 25-60 66-154 73-39 3-81-1-119 1-56 4-39 19-76 34-39 16-42-21-90-6-25 8-29 30-73 39-109 21-103-39-39-99 47-45 91-55 151-78 102-38 113 40 169 41 63 2 118-51 162-69zm-4612-100c133-28 247 94 142 95-9 0-151-13-157-15-58-16-58-65 14-80zm1127 191c76-41 132 7 212-51 72-52 93-38 144-109 119-164 313-152 128-8-37 29-136 84-149 105-122 188-153 138-275 233-32 24-115 105-146 89-27-38 46-93 73-119 72-70 3-72 13-139zm2809-394c-6-31 20-129 50-134 20-3 80 57 99 76 2 38-4 87-8 127-4 35-21 66-58 50-17-36-38-14-63-48-14-19 0-56-21-71zm-8265-58c165-117-104 449-111 465-18 43-39 74-57 121-46 126-21 333-221 301-102-16-74-187-32-249 40-60 75-30 103-75 18-29 29-78 56-122 38-63 233-421 262-441zm1142 18c3 25 1 51-19 72-39 40-121-15-84-66 11-15 23-37 43-43-6-30-6-45 5-69 21-46 141-15 110 58-14 33-27 31-56 49zm807-196c56-18 175-9 124 75-25 41-42 14-31 82 7 41 13 60 14 105 2 161 18 285-185 290-102 3-88-68-93-146-6-78-38-114-60-177-39-115 143-201 232-229zm6018 0c27-36 90-51 131-30 48 25 7 99-27 118-41-5-97-47-104-88zm-3239 133c-21-69 12-50-55-99-50-70 179-142 212-164 97-35 170 276 159 366-24 33-74 63-114 56-52-34-6-37-102-84-1 0-87-66-100-76zm-3914 648c19-10 102-77 116-95 24-30 55-113 109-97 49 14-35 98-51 121-29 41-50 86-83 129-97 126-273 381-423 424-212 61-431 173-640 208-162 27-48-192-19-258 43-98 72-201 135-288 68-93 83-180 153-270 42-54 139-206 155-269 33-130-176-157-57-234 61-39 227-92 301-117 172-59 491-222 661-174 109 31 218 55 321 102 25 12 124 57 137 74 33 44 5 117-64 116-15-3-87-104-229-108-1 56 114 134 150 171-11 48-152 132-194 116-26-63 107-170-31-257-130-82-58-128-238-55-77 31-140 163-101 242 54 111 153 101 210 154-10 99-141 77-226 164-54 57-193 155-197 166l103 36zm5280-806c-9 89-231 97-303 102-161 11-207-38-106-183 41-60 153-203 232-155 51 30 56 107-23 106-60 0-102 2-105 80 72 58 82 33 138-9 42 11 35 27 85 34 38 5 53-2 83 25zm-84-263c53-61 188-31 176 32-16 84-160-2-176-32zm-4230 227c-13-66 90-143 128-198 27-40 37-74 83-87 29-8 114-29 135-8 57 58-278 304-345 293zm7017-177c-57-19-141-105-12-130 128-25 66 96 12 130zm-2266-490c78-28 143 17 163 96 15 61-38 163-88 187-48 24-155-49-166-103-19-97 4-150 90-180zm-1926 459c-42-29-181 30-230-16-29-26-50-166-50-206 1-129-13-147 109-157 48-4 186 1 224 21-13 55-56 18-56 77 145 5 86-17 190 169 23 40 50 90 41 138-18 101-206 168-281 187-18-69 19-88 62-109 3-21-1-94-8-104zm-6076-504c-7-48 56-122 112-87 23 15 31 38 54 56 31 25 45 18 51 60-32 43-53 9-93-8-44-19-77-6-125-20zm748 35c11 54-29 65-13 102 25 58 41 15 17 94-13 44 49 146 76 188 40 61 107-13 168-44 76-38 91-86 117-162 10-30 34-79 40-106 10-50-24-78-17-111 8-39 56-25 71-71 13-39-6-76 21-114 80-112 298-24 439-102 94-52 285-211 388-110 88 86-275 280-401 410-56 57-63 112-129 150-83 47-423 278-502 344-100 83-73 10-183-3-124-15-350-33-472 0-320 87-525 177-805 354-261 161-617 156-475-51 51-75 624-662 684-710 74 39 249 37 281 66-4 27-238 204-279 238-49 40-95 78-145 118-40 32-129 75-106 133 55 33 117-38 163-68 238-158 488-335 739-454 77-36 243-189 323-90zm6042-560c76-11 136 45 54 100-57 39-96 117-113 125-90 42-107-74-92-135 18-75 87-81 151-90zm-6546 307c13-32 57-62 26-91-33-32-50 19-72-57-11-39-23-69 5-105 40-53 20-38 43-84 35-68 170-32 160 32-10 68-184 20-137 116l111 11c43 34 34 225 9 256-43 19-123-41-145-78zm2326-12c15-54-13-44 26-107 46-74 109-169 168-230 64-66 308-133 394-102 240 86 102 217 53 133-26-44-21-49-87-36-77 15-369 58-345 172 45 12 48-19 97-20 267-5 164-4 302 53 68 28 728-83 901-87 152-3 234 61 358 132 85 49 214 149 272 227 28 38 125 315 134 366 36 198-56 252-231 240-91-6-115-9-192-54-63-37-169 7-216-12-33-65 111-144 110-239-103-106-208 58-331-57-47-44-194-150-251-173-46-19-117 20-164 33-61 17-315 47-375 42-75-7-118-18-189 13-167 73-506 112-695 151-129 27-239 34-366-6-63-20-214-54-236-112 7-38 139-131 178-160 74-55 114-104 183-167 45-42 66-70 129-70 73-1 318 87 371 72zm-312-300c-90 7-68-68-68-111 0-54-58-48-70-123-6-40 32-97 69-116 73-37 54 37 112 69 103 58 115 30 144 51 35 25 19 109-72 47-31-21-105-54-142-39-34 87 158 46 151 143-36 37-36 4-69 32-24 21-11 43-56 47zm-1049-476c27-43 52-7 97-38 28-20 37-45 77-43 21 163-184 193-174 81zm3012-154c75-32 107 80 46 107-76 34-112-79-46-107zm3698 540c-248-62-124-49-293-122-42-19-28-29-56-46-29-19-46-5-53-49-9-55 22-107 55-147 54-65 43-111 69-143 48-59 194 19 334-72 49-32 81-67 140-41 10 51-32 104-45 169-20 98-53 271-53 370 0 57 16 151-59 153-32-28-19-36-38-72zm-4550-623c29-12 192 60 114 98-68 33-205-58-114-98zm-1974-46c20-7 70 46 65 74-4 22-76 25-94 42-29 27-54 67-92 71-111 11 65-167 120-187zm327-93c92-40 186 78 75 135-70 36-23 110-112 201-33 34-91 39-92-18 0-39 26-70 21-127-5-62-27-73 29-116 30-23 54-65 78-75zm4648-76c-47 8-83-58-114-89-33-32-91-41-116-83 20-28 54-34 90-26 40 9 31 44 50 69 24 32 130 28 91 129zm-2201-271c104-39 131 117 13 132-143 17-107-96-13-132zm4166-102c17-7 213 28 95 138-64 60-100 109-157 165-349 343-652 298-474 127 26-26 56-55 82-79 36-34 67-25 93-68 70-120 230-230 361-282zm-2684 821c-47-77 54-90 95-107 53-23 29-142 28-193-6-455 2-377 176-501 89-64 99-23 176-43 108-28 316 4 263 135-59 19-140-77-278-105-63 64-42 138-49 228-6 82-3 171-10 252-3 31-19 72-25 112-5 40-11 79-17 119-10 72-17 146-26 218-6 48-9 65-21 112-14 53-5 89-13 124-8 34-28 28-40 95l-60 331c-11 47-25 56-26 109-1 149 20 137-334 72-161-29-155-34-156-207-1-123 95-142 195-176 220-74 113-37 179-100 26-25 27-8 56-30 17-122-114-103-14-175 8-6 22-286 21-293-49 3-57 48-120 24zm-3297-508c50-29 86-53 125-98 48-55 88-49 115-96 42-73 31-62 100-112 28-21 133-48 163-40 31 66-29 93-50 146s17 121 39 170c93 205-129 72-145 248-18 194-96 136-163 166-20 9-41 31-67 43-33 15-132 37-173 47-120 30-88-26-148-54-53 8-51 63-105 46-48-15-34-28-103-20-27 18-62 52-63 84 18 41 53 38 46 79-54 20-57-12-110 1-39 10-37 30-82 8-50-53 178-295 193-304 62-36 58 19 115 22 59-49 36-143 90-188 28-24 83-24 107 8 32 42-5 69 40 99 70-15 44-155 29-209-39-22-60-14-85-52-12-60 40-138 112-120 29 65-10 78 21 128zm-498-320c-11-81 99-126 129-77 40 65-60 107-129 77zm6998-116c-7-46-154-80-202-85-151-16-115-44-193-72-45 12-146 14-189 29-25 29-44 49-62 83-17 33-51 34-79 56-14 11-179 212-199 225-111 71-33-74-370 324-106 125-44 67-51 194-3 48-30 59-48 98-15 33-16 75-24 111-14 59-14 197-84 187-77-11-97-109-110-171-16-73-46-140-70-210-46-132 10-51 38-179 48-222-38-181 174-355 49-40 82-104 126-150 57-59 106-34 171-79 185-128 139-103 401-171 170-44 297-93 468-30 177 35 470 182 530 274 265 38 188 316 413 146 98 38 122 70 218 74 196 7 439 264 403 541-80 3-226-48-286-10 17 53 215 89 275 105 79 21 61 31 81 107 1 90-188 51-293 38-81-52-24-51-144-76-267-55-112-74-226-205-65-74-19-105-63-157-26-30-78-78-109-112-37-40-61-101-105-107-52 28-54 119-9 162 73 70-7 91 55 165 63 74 55 48 87 150 18 57 37 126 6 180-44 24-104 40-151 15-77-41-82-4-164-14-143-17-173 86-276 103-69 12-65-36-162-2-80 28-272-1-377 12-67 9-90 43-149-13-14-78 57-369 85-457 47-145 103-235 201-350 105-124 210-167 371-180 124-10 354 134 424 53-15-95-108-31-165-73-58-43-72-100-162-86-71 11-411 56-417-44 19-14 157-24 201-35 89-23 160 7 211-9zm-5277-133c-14 83-82 97-162 137-45 66-139 100-192 39 8-62 102-60 156-84 68-30 54-120-1-158-38 10-104 83-125 0-16-65 46-82 99-63 61 22 100-9 140 29 21 20 19 40 33 60 18 25 31 18 52 40zm-687 103c-97 13-131-167-12-208 67 17 112 15 182 23 99 11 92-42 136-42 12 44-10 41-6 87 4 42 26 38 27 77 1 27-55 96-76 117-149 0-121-163-226-130l-25 75zm3238-600c27-8 61 14 79 35 35 41 15 58 26 101 9 37 131 118 53 142-105 33-260-248-158-279zm-3968-302c-6-41-6-128 8-168 12-35 55-79 92-70 32 58-42 208-100 238zm4277-377c15-49-13-102 77-85 28 57 8 164-56 192-66 28-153-43-130-112 62-43 62 6 108 5zm-1052-264c9-13 17-72 51-32 33 38-9 741-18 767-24 62-24 326-38 427-6 41-135 311-183 259-17-39 44-111 65-148 65-112 5-102 12-179l65-11 9-314c-33-20-147-57-181-23 13 58 63 7 107 64-6 63-75 66-125 50-66-22-32-72-72-123-66-83-23-60-51-144-16-48-46-80-59-127-42-153-137 30-178-203-15-87-13-82 26-155 26-50 16-99 49-139 64-13 192 59 255 54 125-11 119-35 266-22zm-1072 832c73-57-28-126-93-290-21-54-90-151-151-289-54-123 52-243 164-247 118-4 31 280 58 340 37 12 129-16 111 74-38 38-77 17-124 30 7 50 100 47 136 67 40 22 68 84 86 125 28 62 113 238 189 211 34-29 21-62 35-110 17-59-1-67-8-122-8-58-5-208 85-179 55 85-45 154 14 207 42 39 90 132 39 180-9 8-138 95-156 107-45 30-147 66-201 57-39-31-54-100-113-76-11 34 115 213 136 239 18 22 54 35 68 58-48 57-140 72-105 172 65 31 105-34 147-65 49 2 31 13 75 40 35 21 87 37 80 82-60 63-89-56-158-20-23 85 93 91 124 137 21 60-29 86-60 139-63 108 19 93-18 159-78 63-72-57-157-48-78 9-121-7-189-47l18-100c52-30 54-25 98-85 26-35 39-106 31-149-421-83-129 58-120 72 40 61-32 78-82 64-57-16-182-70-233-105-72-49-61-162-130-209-78-53-194 1-220-112 8-25 214-219 252-258 41-42 82-85 119-135 24-32 24-49 54-72 38-30 33-50 73-49 9 11 33 77 57 114 18 26 42 82 70 92zm-296-1465c72-18 133-10 183 44 87 95 159 74 108 214-40 109 54 204-116 231-167 27-253 36-291-154-22-109-11-303 117-335zm1330-69c19 37 54 299-41 252-49-25-16-90-8-127 12-54 9-82 49-125zm-86 305c4 2 119 220 38 287-54 45-199 65-266 53-34-34-64-40-114-65l-64 30c-77-48 8-68-29-141-57-110-70-36-145-67-25-10-66-111-83-147-40-79-13-168 51-94 26 30 58 101 88 141 63 84 41 73 144 69 62-3 167 10 221-9 62-22 91-69 158-57zm-1843-504c-30-68 29-147 83-174 39 36 54 62 18 108-24 31-64 72-101 67zm110-206c-113-56-318-185 16-124 22 25 35 59 36 94l-52 29zm18 202c1-3 175-213 197-237 47-52 166-214 228-203 44 175-255 300-314 353-31 28-75 67-111 86zm2530 900c-81-239-6-161-226-332-88-68-98-50-96-174 3-171-45-272-139-413-33-49-69-132-119-160-31-18-57-24-85-50s-39-57-81-38c-28 57 45 89-19 125-94-9-75-244-210-277-57-14-139-33-192-55-88-35 46-90 87-96 79-10 31 64 138 101 62 22 124 41 188 58 76 20 242 135 286 197 140 193 249 401 365 609 48 86 303 703 155 721-48-28-15-63-19-112-2-29-23-75-33-104zm-124-1463c59 5 251 266 294 323 68 90 148 173 210 261 153 215 304 459 362 722 1 47 13 206-32 228-98 48-42-180-37-214 13-99-15-164-58-250-18-37-100-158-129-184-153-142-10-130-68-192-227-240-169-167-294-334-55-73-232-308-248-358zm-1960-200c28-46-14-39 43-70 111-60 172-111 214-20 22 48 40 129 22 180-28 78-107 33-149 36-33 47-35 159-104 150-42-5-40-79-89-36l-188 194c-41 38-68 133-121 115-87-94 279-300 266-394-40-28-32 7-75 0-9-42 15-109 45-141 55-58 87-25 137-13zm1637 308c-15-7-181-163-204-186-113-114-134-102-290-110-242-12-104-130-92-194-75-99-148 16-186 77-38-7-105-60-83-116 51-27 107-1 147-33 6-70-27-42-71-54 2-36 55-68 90-63 77 10 51 66 192 32-4 39 462 242 480 232 41 45 64 73 37 134-49 107 112 231 111 258-2 56-98 38-130 22zm-1438-700c78-25 63 110-2 129-60 18-107-95 2-129zm-1071-390c94-120 242-164 205-167 39-25 82-43 124-62 226-69 361 20 611 38 215 68 289 117 381 316 23 50 49 113 57 168 12 86-3 82 30 137 25 41 19 114 42 169 17 42 74 73 90 97-9 95-194 227-284 208-35-29-49-100-30-141 52-32 40 12 95 19 30-18 51-51 50-86-69-41-159 12-191-12-44-62 44-78 61-149-15-36-43-34-22-84 12-30 36-43 55-65 4-5 83-192-21-72-73 0-51-34-110-44-1 0-124 30-144 37-80 28-119 72-177-10 11-82 122-133 108-212-72-1-137 97-174 151-32 46-30 17-75 40-39 20-58-2-99 20-54 17-229-36-296 27 24 42 221 78 274 97 30 32 53 36 21 70-39 21-193-22-239-36-219-66-266-25-423 10-155 35-260 10-291-7-66 21-133 73-220 17-17-57-13-47 32-68 43-20 58-41 98-63 182-97 39-28 221-100 73-29 161-59 230-91 52-25 41-50 80-81 36-28 92-22 67-80-48-16-101 56-137 9zm254 1686l27 3c18-18 30-42 55-51-3 24-42 65-60 79-12 39-26 35-18 75 48 11 151-101 185-138 39-42 100-178 168-147 42 55 7 117-20 168-14 26-13 58-9 87 11 63 21 11 43 60-2 103-71 142-65 217 4 50 19 74 0 129-14 40-37 55-35 101 2 52 31 60 12 121-15 49-40 63-50 87-20 49 17 73 22 117 8 67-32 41-76 56-26 95 24 66-60 160-92 103-54 30-139 46-12 11-74 102-93 128-57 75 20 42-92 119-45 31-58 95-93 118-30 20-122 3-112 93 23 3 102-19 66 47-13 24-213 165-226 190-11 51 44 128-30 169-82 46-110-17-143-54-62-1-8 20-78 21-36 1-56 4-44 50-12 97 190 6 106 105-75 100-129 34-166 23-107-33-53 20-93-144-17-67-27-54-52-100-19-35-12-102-12-143 1-60-15-98-14-135 39-35 100-36 116-95 20-76-41-257-64-338-16-56-9-115-87-114-37 1-98 56-113 87-36 75-23 278 7 354 13 31 24 32 33 68 15 60-4 25 39 64 2 73 16 135 15 212 0 12-30 184-31 186-21 39-41 18-68 51-24 29-14 53-23 88-13 48-84 88-130 89-82-63-80-85-40-183 52-127 138-73 121-416-4-74 10-182-81-197-74-12-167 19-237 42-72 23-209 7-243 29-4 3-182 279-225 332-82 102-166 192-259 283-176 172-355 410-482 619-34 56-76 118-106 174-17 31-22 67-35 100-27 71-51 13-46 87 114-51 240-319 300-389 75-87 149-212 301-387 196-225 308-284 484-541 29-43 98-167 119-186 88-11 128 1 223-30 64-21 133-74 201-59 35 90 27 314-27 402-34 55-63 74-95 143-24 52-37 113-64 172-58 130-174 80-210 264-18 88-105 242-167 307-108 113-485 296-553 396-25 37-79 96-114 123-67 51-46 74-105 132-43 43-122 78-164 17-49-72 57-84 35-163-77-76-160 20-231 58-45 24-87 31-135 42-76 17-38 52-83 86-67 19-86-43-124-29-27 66-4 43 12 75 16 31 1 99 9 177 9 95 11 75 11 75 0-1 2 5 3 7 46-25 35-171 83-207 45-20 71 0 113 9 50 10 66 2 65 59-62 42-47-1-105-4-64 30-30 72-72 133-20 30-45 94-63 132-118 250-205 267-358 421-107 107-616 600-640 723-7 37 3 137 25 168 38 76 258 104 332 78 133-25 158-77 265-140 193-115 335-197 549-273 183-64 515-105 702-60 34 129 27 60 111 154 65 74-44 174-86 293-15 45-91 228-87 261 92 24 57-162 164-205 25 43-37 150-54 197-69 187-243 46-649 132-156 33-276 60-424 107-63 20-138 65-201 67-51 2-141 15-162 75 29 78 148 54 1 191-96 90-154 7-210 128-63 137-139 39-215 129-81 95-159 48-161 160-4 196-125 65-157 177-13 44-1 96-40 129-283 243-11 144-173 274-50 41-138 129-148 192-11 71-42 242-35 303 6 56 21 86 0 142-19 52-41 72-20 128 55 149 2 148 35 280 13 52 12 99 23 148 11 47 35 72 55 114 32 66 56 173 91 257 40 94 70 128 132 206 820 1179 2645 690 3034-556 97-252 154-602 149-875-1-50-5-101-22-149-18-51-58-77-29-121 81-53 95 57 163 54 23-147-40-320-98-451-33-75-95-216-137-286-25-43-51-30-35-93 32-37 162-70 214-61 51 9 128 87 130 141 8 264 133 283 107 438-3 17-58 217-61 220-32 47-36 17-47 88-6 44-29 74-30 102-1 19 54 175 63 214 12 47 28 192 50 218 55 21 101-44 142 23 1 47-30 38-37 73 8 14 97 121 115 143 29 35 259 225 288 236 35 13 88 3 128 8 38 5 62 22 98 29 84 18 817-67 945-87 75-12 151-30 226-35 318-23 215-42 333-67l809-100c88-9 120-44 218-16 105 30 109 17 211-2 154-28 369 21 489-18 123-40 346-37 482-41 138-4 104 15 150 110 83 170 198 313 338 441 365 333 868 488 1356 437 153-16 318-95 434-106 74-7 72 10 143-27 21-11 87-46 100-60 17-19 31-81 57-113 20-26 72-41 103-58 62-33 171-103 138-178-42-22-103 52-153 27-23-59 45-62 89-54 114 20 159-18 226-105 52-67-2-59-5-107 48-56 79-5 128-75 24-33 65-84 50-123-86-13-34 121-123 81-41-59 21-61 44-88 36-44-13-57 72-80 64-18 61-24 75-84 10-40 34-79 19-103-42 23-20 96-77 79-35-57 12-121 39-167 27-45 4-42 8-86 3-32 19-50 21-88 8-136-6-65 81-140 42-37 41-129 27-178-64-11-36 44-92 23-23-31-3-147-21-216-17-67-79-127-34-198 38-25 58 6 113-30 4-32-43-182-52-205-15-38-26-10-20-63 35-35 434-91 513-103 87-14 175-35 261-52 106-21 142-9 220-90-25-32-113-179-13-152 11-125 50-80 244-106 345-47 250-91 231-242-10-82 24-75-4-157-10-31-8-50-15-78-8-30-21-34-29-57-12-36 13-109 15-157 5-91-10-66-61-119-64-66-77-338-175-343l-38 64c-68-2-29-77-177-169-44-28-81-27-95-83-11-41-9-97-64-100-65 54 6 440 19 535 24 179 23 377 52 557 8 49 39 223 12 261-33 46-77 20-78-42-1-54-3-90-10-143-13-98 10-197-100-204-54-3-210-17-244-52 15-110 236 15 296-17 97-109-182-171-203-220 41-114 148 12 190 5 19-53-3-120-29-167-45-82 28-65 3-146-36-36-44-8-80-31-37-72 142-180 26-238-35 17-23 0-57 31-61-6-24-15-100-2-121 21-128-4-188 84-12 20-37-12-85 49 14 61 44 31 91 49 1 1 75 125 76 128 15 47 16 125-24 154-77 33-115-82-165 38-27 65-94 104-123 19 36-51 100-71 100-136-58-4-59 55-109 34-24-34 8-48-29-81-25-22-318-10-387-7-43 2-222 128-173 200l90-12c15 24 22 53 39 73 21 26 40 25 58 58l-47 57c14 58 47 28 32 124-13 85 13 78 12 130-1 22-63 178-147 45-119-190 16-182-46-361-24-70-33-36-84-34-26-85 35-74-81-131-63-31-68-90-115-93-11 15-27 90-31 113-20 102-131 146-87-37 24-100 106-211 105-219-60-16-151 52-188 95-18 21-22 41-46 66-42 0-80-19-93-62 20-65 73-29 100-84-25-16-148 18-164 38-3 14 25 108 32 135 7 26 44 84 60 109 31 47 70 37 113 65 106 134 96 239 51 420-9 37-23 44-24 86 23 14 43 14 63 30 18 14 19 28 38 45 53 1 115-37 165-3 33 22 76 65 85 101-40 33-80 21-121 32-26 7-49 48-81 72-199 148-253 237-514 248-68 3-91-9-144-10-68 58-33 80-64 133-63 16-112-79-113-123-2-57 25-43-15-95-24-31-40-41-33-80 46 2 49 42 83-10 33-51 35-28 60-60 39-49-8-23 57-70 33-24 35-46 8-75-89 32-293 81-69-28 29-14 25 1 53-15 8-75-12-66-68-52l-29-45c-52-30-62 5-93-30-8-71-41-1-48-186-6-166 87-228 59-321-23-78-13-159-2-241 6-48-34-154-87-162-35 19-24 44-56 71-47-22-88-53-50-101 58-72-59-44-8-117 42-24 66 13 103 31 42 21 69 9 105 39 95 81 105 59 232 47 464-44 153-135 193-247 60-52 133-9 188-9 65-1 137-14 213-14 267 0 537-32 792-115 59-19 105-51 165-64 54-11 151-6 194-25 40-46 48-132 149-90 39 94-67 144-14 219 59 21 250-39 306-82-32-35-49-88-79-129-60-84-99-26-153-78-17-50 34-162 36-239 2-81-24-178-24-262 0-145 25-93-49-222-51-89-43-141-36-237 15-202-241-671-465-677-85-2-176 44-239 21-40-15-151-78-184-105-262-264-882-460-1300-308-79 24-163 34-231 57-84 28-109 70-178 110-97 55-84 22-176 112-43 42-107 96-155 133-198 153-110 210-156 405-28 120-206 84-327 238-213 272-16 179-14 389 1 126 17 160-112 181-56 9-119 103-120 157-7 281 73 276-185 391-300 133-176 44-444 63 7-21 78-77 102-84 98-31 85 44 141 32 23-13 34-38 33-65-31-24-74 2-86-6 32-62 73-40 119-152 30-73 71-137 36-214-56-123 2-94 16-209 21-164-17-104-69-197 6-45 98-42 115-135 11-61-86-114-23-184 62-69 86 10 126-147 15-58 50-151 55-204 9-86-25-148-7-244 9-49 27-186 45-219 38-67 126-72 142-118 3-8 12-207 9-217-11-43-30-64-63-209-74-324-184-344 5-575 48-58 84-69 128-144 28-48 77-118 94-167 49-147 76-301 27-452-81-248-281-435-415-651-144-233-295-382-502-556-96-81-194-162-285-248-47-44-82-92-143-119-65-28-135-30-201-62-162-81-178-162-403-115-232 48-149 262-275 245-75-43 2-156-38-209-50-98-41-70-67-187-4-118-92-261-165-352-104-130-161-150-321-195-123-35-343-43-468-18-116 23-251 106-362 157-146 66-168 144-294 222-110 68-212 120-306 210-45 42-76 92-119 135-57 57-104 74-101 157 113 32 240 7 358 11 183 7 197-18 204 172 54 38 45 1 93 76l70 99-1 100c-8 55 19 59-18 109-25 35-37 59-43 101-17 130-23 122 26 241 27 65 69 140 80 209 8 50-10 65 41 102 31 23 56 46 90 50-19-77-33-39-69-121 10-32-24-44-14-80 7-25-21-59-13-85-56-45-87-116-98-182-17-108 29-204 155-170 124 28 33 493 103 526zm58 3984c-2 40 44 64-25 87-46 15-94 8-142 11-44 3-219 14-225 69 53 17 101-18 149 30 42 42 62 64 129 37 36-50-9-73 78-92 55-12 83-19 134-44 49-23 250-19 312-13 92 8 175 43 250 97 34 25 195 136 214 142 121 38-66-157-78-169-81-78-101-100-203-152-118-60-148-73-282-47-54 10-289 28-312 42zm-2022-1712c-50 22-335 363-379 427-61 90-98 153-172 235-43 48-26 67-90 113-59 43-64 100 13 98 107-3 485-522 588-623 65-64 42-56 68-135 8-26 48-148-28-114zm901 3223c16-23 13-153-26-161-27-6-211 81-307 97-49 8-108 23-134 70-46 85-19 197 175 108 27-12 38-29 64-37 18-6 175-2 228-76zm-881 885c123-4 347-539 338-626-73-8-350 536-338 626zm310-182c29 20 108 6 138-5 37-14 12-28 42-44 16-9 38 1 66 2l-9-81c-55-1-230 87-237 128zm-1054-3302c57 8 117-102 135-147 46-61 109-116 81-189-94 31-80 116-122 159-38 40-109 119-95 177z"/>
</svg>